<svg width="27" height="28" viewBox="0 0 27 28" fill="none" xmlns="http://www.w3.org/2000/svg">
    <g clip-path="url(#clipGithub)">
        <path
            d="M13.5 0.54834C6.04125 0.54834 0 6.59297 0 14.0483C0 20.0142 3.86775 25.0733 9.23063 26.8565C9.90563 26.9836 10.1531 26.5662 10.1531 26.2073C10.1531 25.8867 10.1419 25.0373 10.1363 23.9123C6.381 24.7268 5.589 22.1011 5.589 22.1011C4.97475 20.543 4.08712 20.1267 4.08712 20.1267C2.86425 19.2897 4.18162 19.3066 4.18162 19.3066C5.53725 19.4011 6.24937 20.6971 6.24937 20.6971C7.45312 22.7615 9.4095 22.1652 10.1813 21.8198C10.3028 20.9468 10.6504 20.3517 11.0363 20.0142C8.03813 19.6767 4.887 18.5157 4.887 13.343C4.887 11.8692 5.41012 10.6655 6.27637 9.72047C6.1245 9.37959 5.66888 8.00709 6.3945 6.14747C6.3945 6.14747 7.52513 5.78522 10.107 7.53122C11.187 7.23084 12.3345 7.08234 13.482 7.07559C14.6295 7.08234 15.777 7.23084 16.857 7.53122C19.422 5.78522 20.5526 6.14747 20.5526 6.14747C21.2782 8.00709 20.8226 9.37959 20.6876 9.72047C21.5483 10.6655 22.0714 11.8692 22.0714 13.343C22.0714 18.5292 18.9158 19.6711 15.912 20.003C16.3845 20.408 16.8232 21.236 16.8232 22.5005C16.8232 24.3072 16.8064 25.7585 16.8064 26.1972C16.8064 26.5516 17.0426 26.9735 17.7345 26.8385C23.1356 25.0677 27 20.0052 27 14.0483C27 6.59297 20.9554 0.54834 13.5 0.54834Z"
            fill="black" />
    </g>
    <defs>
        <clipPath id="clipGithub">
            <rect width="27" height="27" fill="white" transform="translate(0 0.214111)" />
        </clipPath>
    </defs>
</svg>