<svg width="25" height="26" viewBox="0 0 25 26" fill="none" xmlns="http://www.w3.org/2000/svg">
    <g clip-path="url(#clipMedium)">
        <path fill-rule="evenodd" clip-rule="evenodd"
            d="M25 0.214111H0V25.2141H25V0.214111ZM5.92393 8.27545C5.9607 8.3708 5.97448 8.47347 5.96416 8.57515H5.96426V15.9982C5.98679 16.1302 5.97795 16.2657 5.93846 16.3937C5.89897 16.5217 5.82993 16.6386 5.73691 16.735L3.97266 18.875V19.1572H8.9751V18.875L7.21094 16.735C7.11716 16.6387 7.04654 16.5223 7.00443 16.3946C6.96231 16.267 6.94981 16.1314 6.96787 15.9982V9.57847L11.3587 19.1571H11.8683L15.6397 9.57837V17.2132C15.6397 17.417 15.6397 17.4563 15.5064 17.5895L14.15 18.9064V19.1886H20.7362V18.9064L19.4268 17.6208C19.3701 17.5776 19.3262 17.5197 19.3 17.4534C19.2737 17.3871 19.2661 17.3149 19.2778 17.2446V7.79917C19.2661 7.72884 19.2737 7.65663 19.3 7.59033C19.3262 7.52402 19.3701 7.46613 19.4268 7.4229L20.7675 6.13745V5.85522H16.1259L12.8171 14.1091L9.05352 5.85522H4.18438V6.13745L5.75254 8.02632C5.82845 8.09474 5.88716 8.18009 5.92393 8.27545Z"
            fill="#12100E" />
    </g>
    <defs>
        <clipPath id="clipMedium">
            <rect width="25" height="25" fill="white" transform="translate(0 0.214111)" />
        </clipPath>
    </defs>
</svg>