<svg width="14" height="14" viewBox="0 0 14 14" fill="none" xmlns="http://www.w3.org/2000/svg">
<path d="M13.956 6.22499C13.9336 6.02757 13.7039 5.88056 13.505 5.88056C13.1899 5.88749 12.8803 5.79766 12.6178 5.62318C12.3554 5.4487 12.1528 5.19796 12.0374 4.90479C11.922 4.61162 11.8993 4.29011 11.9724 3.98364C12.0454 3.67717 12.2108 3.40048 12.4461 3.19088C12.5194 3.12449 12.5647 3.0327 12.5728 2.93414C12.5808 2.83558 12.5511 2.73764 12.4895 2.66023C12.1623 2.24654 11.7897 1.87082 11.3788 1.54011C11.301 1.47808 11.2025 1.44804 11.1034 1.4561C11.0042 1.46417 10.9119 1.50974 10.8452 1.58352C10.6258 1.81435 10.3429 1.97495 10.0323 2.04499C9.72161 2.11503 9.39714 2.09135 9.09994 1.97696C8.8055 1.851 8.55696 1.63751 8.38807 1.36549C8.21918 1.09346 8.13812 0.776067 8.1559 0.456403C8.16124 0.357087 8.12862 0.259455 8.06464 0.183284C8.00066 0.107112 7.91012 0.0580947 7.81134 0.0461608C7.28836 -0.0139489 6.7603 -0.0153578 6.23701 0.0419604C6.1396 0.0528093 6.04982 0.0998539 5.98548 0.173766C5.92114 0.247678 5.88694 0.343061 5.88965 0.441001C5.90096 0.757884 5.81513 1.07066 5.64365 1.33741C5.47217 1.60417 5.22324 1.81217 4.9302 1.93355C4.63419 2.04352 4.31253 2.06487 4.00458 1.995C3.69662 1.92512 3.41571 1.76705 3.19619 1.54011C3.1299 1.46761 3.03863 1.42284 2.94069 1.41479C2.84276 1.40674 2.7454 1.436 2.66815 1.49671C2.24923 1.82552 1.8695 2.20135 1.53642 2.61682C1.47466 2.69448 1.44453 2.79259 1.45207 2.89151C1.4596 2.99043 1.50423 3.08286 1.57704 3.15028C1.81654 3.36488 1.98335 3.64862 2.05437 3.96219C2.12539 4.27577 2.0971 4.60366 1.97342 4.90046C1.8402 5.18977 1.62454 5.43336 1.35347 5.60073C1.0824 5.7681 0.767952 5.8518 0.449512 5.84135C0.350679 5.83509 0.253291 5.86755 0.17799 5.93185C0.102689 5.99615 0.0553926 6.08723 0.0461244 6.18579C-0.0153748 6.71419 -0.0153748 7.24794 0.0461244 7.77635C0.0643329 7.98077 0.302444 8.12078 0.502737 8.12078C0.81137 8.1183 1.11364 8.20853 1.37037 8.37979C1.6271 8.55105 1.82646 8.79543 1.94261 9.08128C2.06127 9.37524 2.08744 9.69838 2.01762 10.0076C1.9478 10.3168 1.78531 10.5974 1.55183 10.8119C1.4789 10.8782 1.43387 10.9697 1.42581 11.0679C1.41775 11.1662 1.44727 11.2638 1.50841 11.3411C1.83389 11.7554 2.2056 12.1312 2.61632 12.4612C2.69374 12.5236 2.79204 12.5541 2.89119 12.5466C2.99034 12.539 3.08288 12.494 3.14997 12.4206C3.36962 12.1894 3.65285 12.0284 3.96394 11.9578C4.27503 11.8873 4.60004 11.9105 4.89798 12.0244C5.19332 12.1489 5.44281 12.3618 5.61212 12.6338C5.78143 12.9059 5.86223 13.2237 5.84342 13.5435C5.83809 13.6429 5.87071 13.7405 5.93469 13.8167C5.99866 13.8928 6.08921 13.9418 6.18798 13.9538C6.45584 13.9842 6.72518 13.9997 6.99476 14C7.25171 14.0005 7.50847 13.986 7.76372 13.9566C7.86163 13.9457 7.95181 13.8983 8.01622 13.8237C8.08063 13.7492 8.11451 13.6532 8.11108 13.5547C8.09915 13.2381 8.1844 12.9254 8.35541 12.6586C8.52641 12.3918 8.77497 12.1837 9.06773 12.0622C9.36355 11.9527 9.68497 11.9322 9.99234 12.0031C10.2997 12.074 10.5796 12.2332 10.7975 12.4612C10.8638 12.5337 10.9551 12.5785 11.053 12.5865C11.151 12.5946 11.2483 12.5653 11.3256 12.5046C11.7439 12.1751 12.1235 11.7993 12.4573 11.3845C12.5197 11.3071 12.5502 11.2089 12.5427 11.1097C12.5351 11.0106 12.4901 10.9181 12.4167 10.8511C12.1804 10.6429 12.0137 10.3673 11.9389 10.0614C11.8641 9.7556 11.8849 9.43421 11.9985 9.14054C12.112 8.84687 12.3129 8.59504 12.5739 8.41897C12.835 8.2429 13.1439 8.15105 13.4588 8.15579H13.5456C13.645 8.16113 13.7426 8.12851 13.8188 8.06456C13.895 8.00061 13.9441 7.91009 13.956 7.81135C14.0147 7.28419 14.0147 6.75215 13.956 6.22499ZM7.01017 9.34871C6.54837 9.34871 6.09694 9.21182 5.71297 8.95535C5.329 8.69889 5.02974 8.33436 4.85301 7.90787C4.67629 7.48138 4.63005 7.01208 4.72014 6.55932C4.81024 6.10656 5.03261 5.69068 5.35915 5.36426C5.68569 5.03784 6.10173 4.81554 6.55465 4.72548C7.00758 4.63542 7.47705 4.68164 7.90369 4.8583C8.33034 5.03496 8.69499 5.33412 8.95156 5.71795C9.20812 6.10178 9.34506 6.55304 9.34506 7.01467C9.34431 7.63347 9.09808 8.22671 8.66036 8.66427C8.22265 9.10182 7.62919 9.34797 7.01017 9.34871Z" fill="#FFE41E"/>
</svg>
