<svg width="16" height="17" viewBox="0 0 16 17" fill="none" xmlns="http://www.w3.org/2000/svg">
    <path
        d="M15.2693 16.0028C15.1736 16.0034 15.0788 15.985 14.9902 15.9488C14.9017 15.9127 14.8211 15.8593 14.7532 15.7919L0.215721 1.2466C0.0788478 1.10965 0.00195312 0.923914 0.00195312 0.730242C0.00195313 0.53657 0.0788478 0.35083 0.215721 0.213883C0.352594 0.076936 0.538234 1.44297e-09 0.731802 0C0.92537 -1.44297e-09 1.11101 0.076936 1.24788 0.213883L15.7854 14.7592C15.8535 14.8268 15.9076 14.9073 15.9445 14.9959C15.9814 15.0845 16.0004 15.1796 16.0004 15.2756C16.0004 15.3716 15.9814 15.4666 15.9445 15.5553C15.9076 15.6439 15.8535 15.7243 15.7854 15.7919C15.7175 15.8593 15.6369 15.9127 15.5484 15.9488C15.4598 15.985 15.365 16.0034 15.2693 16.0028Z"
        fill="currentColor" />
    <path
        d="M0.73109 16.0028C0.635428 16.0034 0.540598 15.985 0.452038 15.9488C0.363477 15.9127 0.282928 15.8593 0.215008 15.7919C0.14688 15.7243 0.0928044 15.6439 0.0559019 15.5553C0.0189994 15.4666 0 15.3716 0 15.2756C0 15.1796 0.0189994 15.0845 0.0559019 14.9959C0.0928044 14.9073 0.14688 14.8268 0.215008 14.7592L14.7525 0.213883C14.8894 0.076936 15.075 0 15.2686 0C15.4622 0 15.6478 0.076936 15.7847 0.213883C15.9215 0.35083 15.9984 0.53657 15.9984 0.730242C15.9984 0.923914 15.9215 1.10965 15.7847 1.2466L1.24717 15.7919C1.17925 15.8593 1.0987 15.9127 1.01014 15.9488C0.921581 15.985 0.826751 16.0034 0.73109 16.0028Z"
        fill="currentColor" />
</svg>