<svg width="27" height="23" viewBox="0 0 27 23" fill="none" xmlns="http://www.w3.org/2000/svg">
    <g clip-path="url(#clipTwitter)">
        <path
            d="M27 2.89827C25.989 3.34617 24.9165 3.64017 23.8184 3.77049C24.9622 3.08495 25.8405 1.99936 26.254 0.705887C25.1667 1.35113 23.9771 1.80574 22.7365 2.05009C21.726 0.973567 20.2865 0.300781 18.6932 0.300781C15.6339 0.300781 13.1536 2.78098 13.1536 5.84C13.1536 6.27422 13.2027 6.69693 13.2971 7.10246C8.69337 6.87138 4.61173 4.66613 1.87956 1.31476C1.40284 2.13288 1.12968 3.08452 1.12968 4.09956C1.12968 6.02141 2.10769 7.71682 3.59395 8.71023C2.71429 8.68268 1.85398 8.44509 1.08485 8.0173C1.08454 8.0405 1.08454 8.0637 1.08454 8.08701C1.08454 10.7709 2.99394 13.0098 5.52793 13.5187C4.71222 13.7405 3.8566 13.773 3.02643 13.6136C3.73127 15.8143 5.77705 17.4157 8.20093 17.4605C6.30513 18.9462 3.91658 19.8318 1.32142 19.8318C0.874231 19.8318 0.433371 19.8055 0 19.7544C2.45141 21.3261 5.36309 22.2431 8.49129 22.2431C18.6803 22.2431 24.2519 13.8024 24.2519 6.48241C24.2519 6.24215 24.2466 6.00327 24.2359 5.76575C25.3203 4.98178 26.2564 4.01077 27 2.89827Z"
            fill="black" />
    </g>
    <defs>
        <clipPath id="clipTwitter">
            <rect width="27" height="22.043" fill="white" transform="translate(0 0.214111)" />
        </clipPath>
    </defs>
</svg>